<?xml version="1.0" encoding="UTF-8" standalone="no"?>
<svg
   id="Grafica"
   viewBox="0 0 225 225"
   version="1.1"
   sodipodi:docname="gedi2.svg"
   inkscape:version="1.2.2 (b0a8486541, 2022-12-01)"
   xmlns:inkscape="http://www.inkscape.org/namespaces/inkscape"
   xmlns:sodipodi="http://sodipodi.sourceforge.net/DTD/sodipodi-0.dtd"
   xmlns="http://www.w3.org/2000/svg"
   xmlns:svg="http://www.w3.org/2000/svg">
  <sodipodi:namedview
     id="namedview37"
     pagecolor="#ffffff"
     bordercolor="#000000"
     borderopacity="0.25"
     inkscape:showpageshadow="2"
     inkscape:pageopacity="0.0"
     inkscape:pagecheckerboard="0"
     inkscape:deskcolor="#d1d1d1"
     showgrid="false"
     inkscape:zoom="3.4755556"
     inkscape:cx="44.165601"
     inkscape:cy="112.5"
     inkscape:window-width="1920"
     inkscape:window-height="1011"
     inkscape:window-x="0"
     inkscape:window-y="0"
     inkscape:window-maximized="1"
     inkscape:current-layer="Grafica" />
  <defs
     id="defs4">
    <style
       id="style2">
      .cls-1 {
        fill: #f9a779;
      }

      .cls-2 {
        fill: #fff;
      }

      .cls-3 {
        fill: #0079b3;
      }

      .cls-4 {
        fill: #bae2dd;
      }

      .cls-5 {
        fill: #10a5c4;
      }

      .cls-6 {
        fill: #52c3c3;
      }

      .cls-7 {
        fill: #fcccb6;
      }

      .cls-8 {
        fill: #e9d9c9;
      }
    </style>
  </defs>
  <circle
     style="fill:#bae2dd;fill-opacity:1"
     id="path1313"
     cx="112.38536"
     cy="112.83268"
     r="112.19542" />
  <g
     id="g34"
     transform="translate(-2.3265165,-18.242362)">
    <path
       class="cls-6"
       d="m 26.15,188.05 c 0,0 -1.42,-5.11 2.69,-13.93 3.63,-5.11 16.42,-16.62 23.21,-30.18 V 77.1 C 61,40.26 82.53,23.13 114.05,21.69 v 182.15 c 0,0 -69.15,0 -69.15,0 -13.11,-0.45 -17.86,-6.76 -18.75,-15.78 z"
       id="path8" />
    <path
       class="cls-5"
       d="m 201.72,188.05 c 0,0 1.42,-5.11 -2.69,-13.93 -3.63,-5.11 -16.42,-16.62 -23.21,-30.18 V 77.1 c -8.95,-36.84 -30.48,-53.97 -62,-55.41 v 182.15 c 0,0 69.15,0 69.15,0 13.11,-0.45 17.86,-6.76 18.75,-15.78 z"
       id="path10" />
    <g
       id="g16">
      <path
         class="cls-5"
         d="m 113.82,206.16 -48.67,-13 v -68.33 c 0,-26.88 21.79,-48.67 48.67,-48.67 v 0"
         id="path12" />
      <path
         class="cls-3"
         d="m 113.82,76.17 c 26.88,0 48.67,21.79 48.67,48.67 v 68.32 c 0,0 -48.67,13 -48.67,13"
         id="path14" />
    </g>
    <path
       class="cls-1"
       d="m 113.82,193.16 h 48.67 v -51.81 c 0,-26.88 -21.79,-48.67 -48.67,-48.67 v 0"
       id="path18" />
    <path
       class="cls-7"
       d="m 113.82,92.68 c -26.88,0 -48.67,21.79 -48.67,48.67 v 51.81 h 48.67"
       id="path20" />
    <g
       id="g26">
      <path
         class="cls-2"
         d="m 65.74,136.98 v 32.03 l 48.08,24.14 V 169.01 H 98.7 V 145.8 c 4.55,-2.63 9.66,-4.04 15.11,-4.64 v -9.28 c -1.81,0.87 -7.23,-3.25 -9.35,-3.25 -2.13,0 -8.4,1.92 -10.41,5.11 -2.01,3.18 -9.28,27.16 -9.28,27.16 -5.01,0.32 -9.23,-1.49 -12.53,-5.8 l -6.5,-18.11 z"
         id="path22" />
      <path
         class="cls-8"
         d="m 161.89,136.98 v 32.03 c 0,0 -48.08,24.14 -48.08,24.14 v -24.14 h 15.12 c 0,0 0,-23.21 0,-23.21 -4.55,-2.63 -9.66,-4.04 -15.12,-4.64 v -9.28 c 1.81,0.87 7.23,-3.25 9.35,-3.25 2.12,0 8.4,1.92 10.41,5.11 2.01,3.19 9.28,27.16 9.28,27.16 5.01,0.32 9.23,-1.49 12.53,-5.8 l 6.5,-18.11 z"
         id="path24" />
    </g>
    <g
       id="g32">
      <path
         class="cls-5"
         d="M 65.15,164.13 V 193 c 3.68,7.04 8.95,11.09 15.73,12.3 h 32.94 v -11.23 z"
         id="path28" />
      <path
         class="cls-3"
         d="M 162.48,164.13 V 193 c -3.68,7.04 -8.95,11.09 -15.73,12.3 h -32.94 v -11.23 c 0,0 48.67,-29.94 48.67,-29.94 z"
         id="path30" />
    </g>
  </g>
</svg>
